<?xml version="1.0" encoding="utf-8"?>
<!-- Generator: Adobe Illustrator 21.0.0, SVG Export Plug-In . SVG Version: 6.00 Build 0)  -->
<svg version="1.1" id="Layer_1" xmlns="http://www.w3.org/2000/svg" xmlns:xlink="http://www.w3.org/1999/xlink" x="0px" y="0px"
	 viewBox="0 0 612 792" style="enable-background:new 0 0 612 792;" xml:space="preserve">
<style type="text/css">
	.st0{fill:url(#SVGID_1_);}
	.st1{fill:url(#SVGID_2_);}
	.st2{fill:url(#SVGID_3_);}
	.st3{fill:url(#SVGID_4_);}
	.st4{fill:url(#SVGID_5_);}
	.st5{fill:url(#SVGID_6_);}
	.st6{fill:url(#SVGID_7_);}
	.st7{fill:url(#SVGID_8_);}
	.st8{fill:url(#SVGID_9_);}
	.st9{fill:url(#SVGID_10_);}
	.st10{fill:url(#SVGID_11_);}
	.st11{fill:#FFFFFF;}
</style>
<g>
	<linearGradient id="SVGID_1_" gradientUnits="userSpaceOnUse" x1="154.0068" y1="-98.6804" x2="154.0068" y2="514.944">
		<stop  offset="0" style="stop-color:#F7931E"/>
		<stop  offset="1" style="stop-color:#93278F"/>
	</linearGradient>
	<rect x="137.2" y="332.5" class="st0" width="33.6" height="191"/>
	<linearGradient id="SVGID_2_" gradientUnits="userSpaceOnUse" x1="345.0494" y1="-98.6804" x2="345.0494" y2="514.944">
		<stop  offset="0" style="stop-color:#F7931E"/>
		<stop  offset="1" style="stop-color:#93278F"/>
	</linearGradient>
	<rect x="326.8" y="305.9" class="st1" width="36.4" height="195.1"/>
	<linearGradient id="SVGID_3_" gradientUnits="userSpaceOnUse" x1="424.4365" y1="-98.6804" x2="424.4365" y2="514.944">
		<stop  offset="0" style="stop-color:#F7931E"/>
		<stop  offset="1" style="stop-color:#93278F"/>
	</linearGradient>
	<rect x="406.3" y="332.5" class="st2" width="36.2" height="137.9"/>
	<linearGradient id="SVGID_4_" gradientUnits="userSpaceOnUse" x1="457.9932" y1="-98.6804" x2="457.9932" y2="514.944">
		<stop  offset="0" style="stop-color:#F7931E"/>
		<stop  offset="1" style="stop-color:#93278F"/>
	</linearGradient>
	<rect x="441.2" y="279" class="st3" width="33.6" height="225.7"/>
	<linearGradient id="SVGID_5_" gradientUnits="userSpaceOnUse" x1="384.5071" y1="-98.6804" x2="384.5071" y2="514.944">
		<stop  offset="0" style="stop-color:#F7931E"/>
		<stop  offset="1" style="stop-color:#93278F"/>
	</linearGradient>
	<rect x="361.4" y="216.8" class="st4" width="46.3" height="280.8"/>
	<linearGradient id="SVGID_6_" gradientUnits="userSpaceOnUse" x1="184.7572" y1="-98.6804" x2="184.7572" y2="514.944">
		<stop  offset="0" style="stop-color:#F7931E"/>
		<stop  offset="1" style="stop-color:#93278F"/>
	</linearGradient>
	<rect x="169.8" y="253.4" class="st5" width="29.8" height="224.2"/>
	<linearGradient id="SVGID_7_" gradientUnits="userSpaceOnUse" x1="224.7071" y1="-98.6804" x2="224.7071" y2="514.944">
		<stop  offset="0" style="stop-color:#F7931E"/>
		<stop  offset="1" style="stop-color:#93278F"/>
	</linearGradient>
	<rect x="198.5" y="295.6" class="st6" width="52.4" height="205.4"/>
	<linearGradient id="SVGID_8_" gradientUnits="userSpaceOnUse" x1="290.1798" y1="-98.6804" x2="290.1798" y2="514.944">
		<stop  offset="0" style="stop-color:#F7931E"/>
		<stop  offset="1" style="stop-color:#93278F"/>
	</linearGradient>
	<rect x="275" y="181.3" class="st7" width="30.3" height="332.5"/>
	<linearGradient id="SVGID_9_" gradientUnits="userSpaceOnUse" x1="315.1765" y1="-98.6804" x2="315.1765" y2="514.944">
		<stop  offset="0" style="stop-color:#F7931E"/>
		<stop  offset="1" style="stop-color:#93278F"/>
	</linearGradient>
	<rect x="302.1" y="242.9" class="st8" width="26.2" height="270.9"/>
	<linearGradient id="SVGID_10_" gradientUnits="userSpaceOnUse" x1="263.9907" y1="-98.6804" x2="263.9907" y2="514.944">
		<stop  offset="0" style="stop-color:#F7931E"/>
		<stop  offset="1" style="stop-color:#93278F"/>
	</linearGradient>
	<rect x="249.1" y="225.5" class="st9" width="29.8" height="279.2"/>
	<linearGradient id="SVGID_11_" gradientUnits="userSpaceOnUse" x1="306" y1="-98.6804" x2="306" y2="514.944">
		<stop  offset="0" style="stop-color:#F7931E"/>
		<stop  offset="1" style="stop-color:#93278F"/>
	</linearGradient>
	<path class="st10" d="M500.2,111.7L500.2,111.7C392.9,4.5,219.1,4.5,111.8,111.7l0,0C4.6,218.9,4.6,392.8,111.8,500L306,694.2
		L500.2,500C607.4,392.8,607.4,218.9,500.2,111.7z M306,495.6c-104.8,0-189.7-84.9-189.7-189.7c0-104.8,84.9-189.7,189.7-189.7
		c104.8,0,189.7,84.9,189.7,189.7C495.7,410.6,410.8,495.6,306,495.6z"/>
</g>
<g>
	<path class="st11" d="M221.1,365.3v2h-5.9v-2.4c0-9.9-3.8-17.5-14-17.5s-14,7.4-14,17.3c0,22.8,34,23.2,34,49.2
		c0,13.6-5.9,23.5-20.3,23.5c-14.4,0-20.3-9.9-20.3-23.5v-4.8h5.9v5.2c0,10.1,3.9,17.3,14.2,17.3c10.3,0,14.2-7.3,14.2-17.3
		c0-22.6-34-23-34-49.2c0-14.1,6.2-23.2,20-23.4C215.3,341.8,221.1,351.7,221.1,365.3z"/>
	<path class="st11" d="M237.4,392.4v44.2h-6.2v-94h6.2v44.2h29.3v-44.2h6.3v94h-6.3v-44.2H237.4z"/>
	<path class="st11" d="M292.7,415.8l-4.7,20.8h-5.6l20.5-94.1h9l21,94.1h-6.2l-4.7-20.8H292.7z M293.6,410.4H321l-13.8-60.8
		L293.6,410.4z"/>
	<path class="st11" d="M361.9,342.6c14.4,0,20.1,7.9,20.1,21.2v8.2c0,11-4.3,17.3-13.6,19.5c9.7,2.1,13.6,9,13.6,19.2v14.6
		c0,3.9,0.3,8.2,2.3,11.3h-6.4c-1.6-2.8-2-6.2-2-11.3v-14.8c0-12.5-6.8-16-17.6-16h-9.8v42h-6.2v-94H361.9z M358.4,388.9
		c11,0,17.5-3.1,17.5-15.7v-8.9c0-10.1-3.9-16.1-14.1-16.1h-13.3v40.7H358.4z"/>
	<path class="st11" d="M425.9,386.1v5.6h-25.7V431h30.9v5.6h-37.1v-94h37.1v5.6h-30.9v37.9H425.9z"/>
</g>
<g>
	<path class="st11" d="M196.2,494.9c3.6,0,6.7-3,6.7-6.7c0-2.8-1.1-4.6-3.4-5.4c-4.7-1.8-3.6-1.3-8.2-2.9c-4.9-1.7-9.4-5-12.4-9.1
		c-1.8-2.5-2.7-5.5-2.7-9.1c0-5.5,2-10.2,5.9-14.1c3.9-3.9,8.6-5.9,14.2-5.9c5.5,0,10.2,2,14.1,5.9s5.9,8.6,5.9,14.1h-13.3
		c0-3.6-3-6.6-6.6-6.6c-3.6,0-6.7,3-6.7,6.7c0,2.4,0.9,4.2,2.9,5.4c3.9,2.5,3.5,2,8.2,3.4c5.1,1.5,9.7,4.6,12.8,8.7
		c1.8,2.4,2.8,5.4,2.8,9.2c0,5.5-2,10.2-5.9,14.2c-3.9,3.9-8.6,5.9-14.1,5.9c-5.5,0-10.2-2-14.2-5.9c-3.9-3.9-5.9-8.6-5.9-14.2h13.3
		C189.5,492,192.5,495,196.2,494.9L196.2,494.9z"/>
	<path class="st11" d="M253.9,441.9c4.6,0,8.9,0.9,12.9,2.6c4,1.8,7.6,4.1,10.7,7.1l-9.4,9.4c-4-3.9-8.7-5.9-14.1-5.9
		c-5.5,0-10.2,2-14.1,5.9c-3.9,3.9-5.9,8.6-5.9,14.1c0,5.5,2,10.2,5.9,14.1c3.9,3.9,8.6,5.9,14.1,5.9s10.2-2,14.2-5.9l9.4,9.4
		c-3.1,3-6.6,5.4-10.7,7.2c-4,1.8-8.3,2.6-12.9,2.6c-9.2,0-17-3.3-23.5-9.8c-6.5-6.5-9.8-14.4-9.8-23.5s3.3-17,9.8-23.6
		c6.5-6.5,14.4-9.8,23.5-9.8L253.9,441.9z"/>
	<path class="st11" d="M298.1,497.8c-1.5,3.4-3,6.7-4.5,10h-14.2l29.9-67l30,67h-14.2c-1.5-3.3-2.9-6.7-4.4-10L298.1,497.8
		L298.1,497.8z M315.2,486.2l-5.8-13.7l-5.9,13.7H315.2z"/>
	<path class="st11" d="M344.3,488.2v-23.1V442h13.2h9.9c6.3,0,11.8,2.3,16.3,6.8c4.5,4.5,6.8,10,6.8,16.3c0,6.3-2.3,11.8-6.8,16.3
		c-4.5,4.5-10,6.8-16.3,6.8h-9.9V508h-13.2V488.2z M367.4,475c2.7,0,5.1-1,7-2.9c1.9-1.9,2.9-4.3,2.9-7c0-2.7-1-5-2.9-7
		c-1.9-2-4.3-2.9-7-2.9h-9.9v9.9v9.9L367.4,475z"/>
	<path class="st11" d="M435.8,442v13.2h-26.3v13.2h19.8v13.2h-19.8v13.2h26.3V508h-26.3h-13.2V442H435.8z"/>
</g>
</svg>
